<?xml version="1.0" encoding="UTF-8" standalone="no"?>
<!DOCTYPE svg PUBLIC "-//W3C//DTD SVG 1.1//EN"
 "http://www.w3.org/Graphics/SVG/1.1/DTD/svg11.dtd">
<!-- Generated by graphviz version 2.47.0 (20210316.0004)
 -->
<!-- Title: dbml Pages: 1 -->
<svg width="612pt" height="353pt"
 viewBox="0.00 0.00 611.87 353.07" xmlns="http://www.w3.org/2000/svg" xmlns:xlink="http://www.w3.org/1999/xlink">
<g id="graph0" class="graph" transform="scale(1 1) rotate(0) translate(4 349.07)">
<title>dbml</title>
<!-- TrainingProgram -->
<g id="TrainingProgram" class="node">
<title>TrainingProgram</title>
<ellipse fill="none" stroke="black" stroke-width="0" cx="301.93" cy="-172.53" rx="301.87" ry="172.57"/>
<polygon fill="#1d71b8" stroke="transparent" points="90.93,-232.53 90.93,-292.53 513.93,-292.53 513.93,-232.53 90.93,-232.53"/>
<polygon fill="none" stroke="#29235c" points="90.93,-232.53 90.93,-292.53 513.93,-292.53 513.93,-232.53 90.93,-232.53"/>
<text text-anchor="start" x="121.07" y="-253.73" font-family="Helvetica,sans-Serif" font-weight="bold" font-size="32.00" fill="#ffffff"> &#160;&#160;&#160;&#160;&#160;&#160;TrainingProgram &#160;&#160;&#160;&#160;&#160;&#160;</text>
<polygon fill="#e7e2dd" stroke="transparent" points="90.93,-172.53 90.93,-232.53 513.93,-232.53 513.93,-172.53 90.93,-172.53"/>
<polygon fill="none" stroke="#29235c" points="90.93,-172.53 90.93,-232.53 513.93,-232.53 513.93,-172.53 90.93,-172.53"/>
<text text-anchor="start" x="101.93" y="-193.73" font-family="Helvetica,sans-Serif" font-weight="bold" font-size="32.00" fill="#29235c">id</text>
<text text-anchor="start" x="126.82" y="-193.73" font-family="Helvetica,sans-Serif" font-size="32.00" fill="#29235c"> &#160;&#160;&#160;</text>
<text text-anchor="start" x="360.72" y="-193.73" font-family="Helvetica,sans-Serif" font-style="italic" font-size="32.00" fill="#29235c">INTEGER</text>
<polygon fill="#e7e2dd" stroke="transparent" points="90.93,-112.53 90.93,-172.53 513.93,-172.53 513.93,-112.53 90.93,-112.53"/>
<polygon fill="none" stroke="#29235c" points="90.93,-112.53 90.93,-172.53 513.93,-172.53 513.93,-112.53 90.93,-112.53"/>
<text text-anchor="start" x="101.93" y="-132.73" font-family="Helvetica,sans-Serif" font-size="32.00" fill="#29235c">name &#160;&#160;&#160;</text>
<text text-anchor="start" x="346.51" y="-133.73" font-family="Helvetica,sans-Serif" font-style="italic" font-size="32.00" fill="#29235c">VARCHAR</text>
<polygon fill="#e7e2dd" stroke="transparent" points="90.93,-52.53 90.93,-112.53 513.93,-112.53 513.93,-52.53 90.93,-52.53"/>
<polygon fill="none" stroke="#29235c" points="90.93,-52.53 90.93,-112.53 513.93,-112.53 513.93,-52.53 90.93,-52.53"/>
<text text-anchor="start" x="101.62" y="-72.73" font-family="Helvetica,sans-Serif" font-size="32.00" fill="#29235c">duration_weeks &#160;&#160;&#160;</text>
<text text-anchor="start" x="360.83" y="-73.73" font-family="Helvetica,sans-Serif" font-style="italic" font-size="32.00" fill="#29235c">INTEGER</text>
<polygon fill="none" stroke="#29235c" stroke-width="2" points="89.43,-51.53 89.43,-293.53 514.43,-293.53 514.43,-51.53 89.43,-51.53"/>
</g>
</g>
</svg>
